<svg width="100" height="100" viewBox="0 0 100 100" fill="none" xmlns="http://www.w3.org/2000/svg">
<g clip-path="url(#clip0)">
<path d="M50 2.08334C22.375 2.08334 0 24.0833 0 51.2167C0 72.9292 14.325 91.3417 34.1875 97.8333C36.6875 98.2958 37.6042 96.775 37.6042 95.4708C37.6042 94.3042 37.5625 91.2125 37.5417 87.1167C23.6333 90.0792 20.7 80.525 20.7 80.525C18.425 74.8542 15.1375 73.3375 15.1375 73.3375C10.6083 70.2917 15.4875 70.3542 15.4875 70.3542C20.5083 70.6958 23.1458 75.4167 23.1458 75.4167C27.6042 82.9292 34.85 80.7583 37.7083 79.5042C38.1583 76.325 39.4458 74.1625 40.875 72.9333C29.7708 71.7042 18.1 67.4792 18.1 48.6542C18.1 43.2917 20.0375 38.9083 23.2458 35.4708C22.6833 34.2292 20.9958 29.2333 23.6833 22.4667C23.6833 22.4667 27.8708 21.15 37.4333 27.5042C41.4333 26.4125 45.6833 25.8708 49.9333 25.8458C54.1833 25.8708 58.4333 26.4125 62.4333 27.5042C71.9333 21.15 76.1208 22.4667 76.1208 22.4667C78.8083 29.2333 77.1208 34.2292 76.6208 35.4708C79.8083 38.9083 81.7458 43.2917 81.7458 48.6542C81.7458 67.5292 70.0583 71.6833 58.9333 72.8917C60.6833 74.3667 62.3083 77.3792 62.3083 81.9833C62.3083 88.5583 62.2458 93.8417 62.2458 95.4375C62.2458 96.725 63.1208 98.2625 65.6833 97.7708C85.6875 91.3208 100 72.8958 100 51.2167C100 24.0833 77.6125 2.08334 50 2.08334Z" fill="#212121"/>
</g>
<defs>
<clipPath id="clip0">
<rect width="100" height="100" fill="white"/>
</clipPath>
</defs>
</svg>
